<svg width="133" height="125" viewBox="0 0 133 125" fill="none" xmlns="http://www.w3.org/2000/svg">
<path d="M27.7083 109.375H105.292C111.413 109.375 116.375 104.711 116.375 98.9583V26.0417C116.375 20.2887 111.413 15.625 105.292 15.625H27.7083C21.5872 15.625 16.625 20.2887 16.625 26.0417V98.9583C16.625 104.711 21.5872 109.375 27.7083 109.375ZM27.7083 109.375L88.6667 52.0833L116.375 78.125M55.4167 44.2708C55.4167 48.5856 51.695 52.0833 47.1042 52.0833C42.5133 52.0833 38.7917 48.5856 38.7917 44.2708C38.7917 39.9561 42.5133 36.4583 47.1042 36.4583C51.695 36.4583 55.4167 39.9561 55.4167 44.2708Z" stroke="#1E1E1E" stroke-width="4" stroke-linecap="round" stroke-linejoin="round"/>
</svg>
