<svg width="1298" height="54" viewBox="0 0 1298 54" fill="none" xmlns="http://www.w3.org/2000/svg">
<path d="M0 0H1298V54H0V0Z" fill="#D9D9D9"/>
<path d="M201 0H353V54H201V0Z" fill="#19AAE8"/>
<path d="M228.675 20.4291V18.428H240.023V20.4291H235.793V29.9077H232.905V20.4291H228.675Z" fill="white"/>
<path d="M253.96 24.1678C253.96 25.4197 253.674 26.4847 253.103 27.3629C252.536 28.241 251.762 28.9118 250.782 29.3752C249.806 29.8348 248.708 30.0646 247.489 30.0646C246.261 30.0646 245.159 29.833 244.183 29.3696C243.207 28.9062 242.436 28.2354 241.869 27.3573C241.302 26.4791 241.019 25.416 241.019 24.1678C241.019 22.916 241.302 21.851 241.869 20.9728C242.436 20.0946 243.207 19.4257 244.183 18.9661C245.159 18.5027 246.261 18.271 247.489 18.271C248.708 18.271 249.806 18.5027 250.782 18.9661C251.762 19.4257 252.536 20.0946 253.103 20.9728C253.674 21.851 253.96 22.916 253.96 24.1678ZM250.998 24.1678C250.998 23.3569 250.852 22.6731 250.559 22.1163C250.271 21.5595 249.864 21.1372 249.338 20.8495C248.812 20.5617 248.195 20.4179 247.489 20.4179C246.783 20.4179 246.167 20.5617 245.64 20.8495C245.114 21.1372 244.705 21.5595 244.412 22.1163C244.125 22.6731 243.981 23.3569 243.981 24.1678C243.981 24.9787 244.125 25.6626 244.412 26.2194C244.705 26.7762 245.114 27.1985 245.64 27.4862C246.167 27.7739 246.783 27.9178 247.489 27.9178C248.195 27.9178 248.812 27.7739 249.338 27.4862C249.864 27.1985 250.271 26.7762 250.559 26.2194C250.852 25.6626 250.998 24.9787 250.998 24.1678Z" fill="white"/>
<path d="M256.124 29.9077V18.428H261.576C262.624 18.428 263.516 18.5943 264.254 18.9268C264.992 19.2557 265.554 19.7135 265.941 20.3002C266.332 20.8831 266.528 21.5557 266.528 22.3181C266.528 23.0804 266.33 23.753 265.934 24.336C265.538 24.9189 264.965 25.373 264.214 25.6981C263.467 26.0232 262.563 26.1858 261.501 26.1858H258.027V24.2407H261.029C261.591 24.2407 262.055 24.1604 262.419 23.9997C262.788 23.8352 263.062 23.6092 263.242 23.3214C263.427 23.0299 263.519 22.6955 263.519 22.3181C263.519 21.9369 263.427 21.6043 263.242 21.3203C263.062 21.0326 262.788 20.8102 262.419 20.6533C262.05 20.4926 261.582 20.4123 261.016 20.4123H259.045V29.9077H256.124Z" fill="white"/>
<path d="M277.721 29.9077H272.823V18.428H277.762C279.152 18.428 280.348 18.6578 281.351 19.1174C282.355 19.5733 283.126 20.2292 283.666 21.0849C284.21 21.9406 284.482 22.9646 284.482 24.1566C284.482 25.3524 284.21 26.3801 283.666 27.2396C283.126 28.099 282.35 28.7586 281.338 29.2182C280.33 29.6779 279.125 29.9077 277.721 29.9077ZM275.745 27.8281H277.6C278.464 27.8281 279.19 27.7011 279.779 27.447C280.373 27.1891 280.818 26.7911 281.115 26.253C281.417 25.7112 281.567 25.0124 281.567 24.1566C281.567 23.3083 281.417 22.6152 281.115 22.077C280.818 21.5389 280.375 21.1428 279.786 20.8887C279.197 20.6346 278.47 20.5076 277.607 20.5076H275.745V27.8281Z" fill="white"/>
<path d="M286.646 29.9077V18.428H295.957V20.4291H289.568V23.1645H295.478V25.1656H289.568V27.9066H295.984V29.9077H286.646Z" fill="white"/>
<path d="M300.662 29.9077H297.531L302.301 18.428H306.066L310.83 29.9077H307.699L304.238 21.0513H304.13L300.662 29.9077ZM300.466 25.3954H307.861V27.29H300.466V25.3954Z" fill="white"/>
<path d="M312.493 29.9077V18.428H315.415V27.9066H321.339V29.9077H312.493Z" fill="white"/>
<path d="M330.769 21.7295C330.715 21.2773 330.484 20.9261 330.074 20.6757C329.665 20.4253 329.11 20.3002 328.408 20.3002C327.931 20.3002 327.528 20.3562 327.2 20.4683C326.872 20.5767 326.62 20.728 326.444 20.9223C326.273 21.1167 326.188 21.3371 326.188 21.5838C326.179 21.7893 326.231 21.9687 326.343 22.1219C326.46 22.2751 326.62 22.4078 326.822 22.5199C327.025 22.6282 327.259 22.7235 327.524 22.8057C327.789 22.8842 328.073 22.9515 328.374 23.0075L329.616 23.2542C330.218 23.3663 330.772 23.5157 331.275 23.7026C331.779 23.8894 332.216 24.1193 332.584 24.392C332.953 24.6648 333.239 24.9862 333.441 25.3562C333.648 25.7261 333.754 26.1503 333.758 26.6286C333.754 27.3311 333.538 27.9402 333.111 28.4559C332.688 28.9679 332.076 29.3658 331.275 29.6498C330.479 29.9301 329.519 30.0702 328.394 30.0702C327.279 30.0702 326.307 29.9282 325.48 29.6442C324.656 29.3602 324.013 28.9398 323.55 28.383C323.091 27.8225 322.85 27.1293 322.828 26.3035H325.655C325.686 26.6884 325.819 27.0097 326.053 27.2676C326.292 27.5217 326.609 27.7141 327.004 27.8449C327.405 27.972 327.857 28.0355 328.361 28.0355C328.855 28.0355 329.285 27.9757 329.649 27.8561C330.018 27.7366 330.304 27.5703 330.506 27.3573C330.709 27.1443 330.81 26.8995 330.81 26.623C330.81 26.3651 330.718 26.1484 330.533 25.9727C330.353 25.7971 330.088 25.6476 329.737 25.5243C329.391 25.401 328.966 25.2889 328.462 25.188L326.957 24.8741C325.792 24.6387 324.872 24.2706 324.198 23.7699C323.523 23.2691 323.188 22.5946 323.192 21.7463C323.188 21.0513 323.41 20.444 323.86 19.9246C324.315 19.4052 324.938 18.9997 325.729 18.7082C326.521 18.4168 327.421 18.271 328.428 18.271C329.454 18.271 330.349 18.4168 331.113 18.7082C331.883 18.9997 332.481 19.4052 332.908 19.9246C333.336 20.444 333.556 21.0457 333.569 21.7295H330.769Z" fill="white"/>
<path d="M470.759 19.2587V30.7385H468.235L462.224 23.5132H462.123V30.7385H459.201V19.2587H461.765L467.729 26.4784H467.851V19.2587H470.759Z" fill="black"/>
<path d="M473.173 30.7385V19.2587H482.484V21.2598H476.094V23.9952H482.005V25.9963H476.094V28.7374H482.511V30.7385H473.173Z" fill="black"/>
<path d="M487.917 30.7385L483.963 19.2587H487.154L489.442 27.2351H489.556L492.08 19.2587H494.812L497.329 27.2519H497.451L499.738 19.2587H502.929L498.975 30.7385H496.128L493.497 23.2329H493.389L490.764 30.7385H487.917Z" fill="black"/>
<path d="M513.789 30.7385H508.89V19.2587H513.829C515.219 19.2587 516.416 19.4886 517.419 19.9482C518.422 20.4041 519.193 21.0599 519.733 21.9157C520.277 22.7714 520.55 23.7953 520.55 24.9874C520.55 26.1832 520.277 27.2108 519.733 28.0703C519.193 28.9298 518.417 29.5894 517.405 30.049C516.398 30.5086 515.192 30.7385 513.789 30.7385ZM511.812 28.6589H513.667C514.531 28.6589 515.258 28.5318 515.847 28.2777C516.44 28.0199 516.886 27.6219 517.183 27.0838C517.484 26.5419 517.635 25.8431 517.635 24.9874C517.635 24.1391 517.484 23.4459 517.183 22.9078C516.886 22.3697 516.443 21.9736 515.854 21.7195C515.264 21.4654 514.538 21.3383 513.674 21.3383H511.812V28.6589Z" fill="black"/>
<path d="M522.714 30.7385V19.2587H532.025V21.2598H525.635V23.9952H531.546V25.9963H525.635V28.7374H532.052V30.7385H522.714Z" fill="black"/>
<path d="M536.729 30.7385H533.599L538.369 19.2587H542.134L546.897 30.7385H543.767L540.305 21.882H540.197L536.729 30.7385ZM536.534 26.2262H543.928V28.1208H536.534V26.2262Z" fill="black"/>
<path d="M548.56 30.7385V19.2587H551.482V28.7374H557.406V30.7385H548.56Z" fill="black"/>
<path d="M566.837 22.5603C566.783 22.1081 566.551 21.7569 566.142 21.5065C565.732 21.2561 565.177 21.1309 564.475 21.1309C563.998 21.1309 563.596 21.187 563.268 21.2991C562.939 21.4075 562.687 21.5588 562.512 21.7531C562.341 21.9474 562.255 22.1679 562.255 22.4145C562.246 22.6201 562.298 22.7994 562.411 22.9527C562.528 23.1059 562.687 23.2385 562.89 23.3506C563.092 23.459 563.326 23.5543 563.591 23.6365C563.857 23.715 564.14 23.7822 564.441 23.8383L565.683 24.0849C566.286 24.197 566.839 24.3465 567.343 24.5334C567.847 24.7202 568.283 24.95 568.652 25.2228C569.021 25.4956 569.306 25.817 569.509 26.1869C569.716 26.5569 569.821 26.981 569.826 27.4593C569.821 28.1619 569.605 28.771 569.178 29.2867C568.755 29.7986 568.143 30.1966 567.343 30.4806C566.547 30.7609 565.586 30.901 564.462 30.901C563.346 30.901 562.375 30.759 561.547 30.475C560.724 30.191 560.081 29.7706 559.617 29.2138C559.158 28.6533 558.918 27.9601 558.895 27.1342H561.722C561.754 27.5191 561.887 27.8405 562.12 28.0983C562.359 28.3525 562.676 28.5449 563.072 28.6757C563.472 28.8028 563.924 28.8663 564.428 28.8663C564.923 28.8663 565.352 28.8065 565.717 28.6869C566.086 28.5673 566.371 28.401 566.574 28.188C566.776 27.975 566.877 27.7303 566.877 27.4537C566.877 27.1959 566.785 26.9792 566.601 26.8035C566.421 26.6279 566.155 26.4784 565.804 26.3551C565.458 26.2318 565.033 26.1197 564.529 26.0188L563.025 25.7049C561.86 25.4694 560.94 25.1014 560.265 24.6006C559.59 24.0999 559.255 23.4254 559.26 22.5771C559.255 21.882 559.478 21.2748 559.928 20.7554C560.382 20.2359 561.005 19.8305 561.797 19.539C562.588 19.2475 563.488 19.1018 564.495 19.1018C565.521 19.1018 566.416 19.2475 567.181 19.539C567.95 19.8305 568.548 20.2359 568.976 20.7554C569.403 21.2748 569.623 21.8764 569.637 22.5603H566.837Z" fill="black"/>
<path d="M683.201 29.0769V17.5972H688.734C689.75 17.5972 690.598 17.7224 691.277 17.9728C691.957 18.2231 692.467 18.5707 692.809 19.0154C693.151 19.4563 693.322 19.9645 693.322 20.54C693.322 20.9884 693.214 21.3827 692.998 21.7227C692.782 22.059 692.485 22.3356 692.107 22.5523C691.734 22.7653 691.307 22.9167 690.825 23.0063V23.1185C691.352 23.1371 691.844 23.2605 692.303 23.4884C692.766 23.7164 693.142 24.0359 693.43 24.4469C693.718 24.8542 693.862 25.34 693.862 25.9043C693.862 26.5134 693.679 27.0571 693.315 27.5355C692.955 28.01 692.422 28.3856 691.716 28.6621C691.01 28.9387 690.139 29.0769 689.105 29.0769H683.201ZM686.122 27.0926H688.504C689.318 27.0926 689.912 26.9637 690.286 26.7059C690.659 26.4443 690.846 26.0968 690.846 25.6633C690.846 25.3456 690.753 25.0654 690.569 24.8225C690.384 24.5796 690.121 24.389 689.779 24.2507C689.442 24.1125 689.039 24.0433 688.572 24.0433H686.122V27.0926ZM686.122 22.401H688.288C688.689 22.401 689.044 22.3431 689.354 22.2272C689.669 22.1076 689.917 21.9395 690.097 21.7227C690.281 21.506 690.373 21.2463 690.373 20.9436C690.373 20.5288 690.196 20.1943 689.84 19.9402C689.489 19.6861 688.99 19.5591 688.342 19.5591H686.122V22.401Z" fill="black"/>
<path d="M695.763 29.0769V17.5972H701.214C702.258 17.5972 703.148 17.7523 703.886 18.0624C704.628 18.3689 705.193 18.8042 705.58 19.3685C705.971 19.929 706.167 20.5886 706.167 21.3472C706.167 22.1095 705.969 22.7653 705.573 23.3146C705.177 23.8602 704.604 24.2788 703.852 24.5702C703.106 24.8617 702.202 25.0075 701.14 25.0075H697.49V23.0568H700.668C701.225 23.0568 701.689 22.9933 702.058 22.8662C702.426 22.7392 702.701 22.5486 702.881 22.2945C703.065 22.0404 703.157 21.7246 703.157 21.3472C703.157 20.966 703.065 20.6446 702.881 20.3831C702.701 20.1215 702.424 19.9234 702.051 19.7889C701.682 19.6506 701.216 19.5815 700.654 19.5815H698.684V29.0769H695.763ZM703.225 23.8528L706.659 29.0769H703.434L700.074 23.8528H703.225Z" fill="black"/>
<path d="M710.613 29.0769H707.482L712.253 17.5972H716.018L720.781 29.0769H717.65L714.189 20.2205H714.081L710.613 29.0769ZM710.417 24.5646H717.812V26.4592H710.417V24.5646Z" fill="black"/>
<path d="M734.002 17.5972V29.0769H731.479L725.467 21.8517H725.366V29.0769H722.444V17.5972H725.008L730.973 24.8169H731.094V17.5972H734.002Z" fill="black"/>
<path d="M741.314 29.0769H736.416V17.5972H741.355C742.745 17.5972 743.941 17.827 744.944 18.2867C745.947 18.7426 746.719 19.3984 747.259 20.2541C747.803 21.1099 748.075 22.1338 748.075 23.3259C748.075 24.5217 747.803 25.5493 747.259 26.4088C746.719 27.2683 745.943 27.9278 744.931 28.3875C743.923 28.8471 742.718 29.0769 741.314 29.0769ZM739.337 26.9973H741.193C742.056 26.9973 742.783 26.8703 743.372 26.6162C743.966 26.3583 744.411 25.9604 744.708 25.4222C745.009 24.8804 745.16 24.1816 745.16 23.3259C745.16 22.4776 745.009 21.7844 744.708 21.2463C744.411 20.7082 743.968 20.3121 743.379 20.0579C742.79 19.8038 742.063 19.6768 741.2 19.6768H739.337V26.9973Z" fill="black"/>
<path d="M759.535 29.0769H754.637V17.5972H759.575C760.965 17.5972 762.162 17.827 763.165 18.2867C764.168 18.7426 764.939 19.3984 765.479 20.2541C766.023 21.1099 766.296 22.1338 766.296 23.3259C766.296 24.5217 766.023 25.5493 765.479 26.4088C764.939 27.2683 764.164 27.9278 763.151 28.3875C762.144 28.8471 760.938 29.0769 759.535 29.0769ZM757.558 26.9973H759.414C760.277 26.9973 761.004 26.8703 761.593 26.6162C762.187 26.3583 762.632 25.9604 762.929 25.4222C763.23 24.8804 763.381 24.1816 763.381 23.3259C763.381 22.4776 763.23 21.7844 762.929 21.2463C762.632 20.7082 762.189 20.3121 761.6 20.0579C761.01 19.8038 760.284 19.6768 759.42 19.6768H757.558V26.9973Z" fill="black"/>
<path d="M768.46 29.0769V17.5972H777.771V19.5983H771.381V22.3337H777.292V24.3348H771.381V27.0758H777.798V29.0769H768.46Z" fill="black"/>
<path d="M782.475 29.0769H779.345L784.115 17.5972H787.88L792.643 29.0769H789.513L786.051 20.2205H785.943L782.475 29.0769ZM782.28 24.5646H789.675V26.4592H782.28V24.5646Z" fill="black"/>
<path d="M794.306 29.0769V17.5972H797.228V27.0758H803.152V29.0769H794.306Z" fill="black"/>
<path d="M812.583 20.8987C812.529 20.4466 812.297 20.0953 811.888 19.8449C811.479 19.5946 810.923 19.4694 810.221 19.4694C809.745 19.4694 809.342 19.5254 809.014 19.6375C808.685 19.7459 808.433 19.8973 808.258 20.0916C808.087 20.2859 808.002 20.5064 808.002 20.753C807.993 20.9585 808.044 21.1379 808.157 21.2911C808.274 21.4443 808.433 21.577 808.636 21.6891C808.838 21.7975 809.072 21.8928 809.337 21.975C809.603 22.0534 809.886 22.1207 810.188 22.1768L811.429 22.4234C812.032 22.5355 812.585 22.685 813.089 22.8718C813.593 23.0587 814.029 23.2885 814.398 23.5613C814.767 23.8341 815.052 24.1554 815.255 24.5254C815.462 24.8953 815.567 25.3195 815.572 25.7978C815.567 26.5003 815.351 27.1095 814.924 27.6251C814.501 28.1371 813.89 28.5351 813.089 28.8191C812.293 29.0993 811.332 29.2395 810.208 29.2395C809.092 29.2395 808.121 29.0975 807.293 28.8135C806.47 28.5295 805.827 28.1091 805.363 27.5523C804.905 26.9917 804.664 26.2985 804.641 25.4727H807.469C807.5 25.8576 807.633 26.179 807.867 26.4368C808.105 26.6909 808.422 26.8834 808.818 27.0142C809.218 27.1412 809.67 27.2047 810.174 27.2047C810.669 27.2047 811.099 27.145 811.463 27.0254C811.832 26.9058 812.117 26.7395 812.32 26.5265C812.522 26.3135 812.623 26.0687 812.623 25.7922C812.623 25.5344 812.531 25.3176 812.347 25.142C812.167 24.9663 811.901 24.8169 811.551 24.6936C811.204 24.5702 810.779 24.4581 810.275 24.3572L808.771 24.0433C807.606 23.8079 806.686 23.4398 806.011 22.9391C805.336 22.4383 805.001 21.7638 805.006 20.9156C805.001 20.2205 805.224 19.6133 805.674 19.0938C806.128 18.5744 806.751 18.1689 807.543 17.8775C808.334 17.586 809.234 17.4403 810.242 17.4403C811.267 17.4403 812.162 17.586 812.927 17.8775C813.696 18.1689 814.294 18.5744 814.722 19.0938C815.149 19.6133 815.369 20.2149 815.383 20.8987H812.583Z" fill="black"/>
<path d="M941.201 30.7385V19.2587H946.734C947.75 19.2587 948.598 19.3839 949.277 19.6343C949.957 19.8847 950.467 20.2322 950.809 20.6769C951.151 21.1178 951.322 21.6261 951.322 22.2015C951.322 22.65 951.214 23.0442 950.998 23.3843C950.782 23.7206 950.485 23.9971 950.107 24.2139C949.734 24.4269 949.307 24.5782 948.825 24.6679V24.78C949.352 24.7987 949.844 24.922 950.303 25.1499C950.766 25.3779 951.142 25.6974 951.43 26.1085C951.718 26.5158 951.862 27.0016 951.862 27.5658C951.862 28.175 951.679 28.7187 951.315 29.197C950.955 29.6716 950.422 30.0471 949.716 30.3237C949.01 30.6002 948.139 30.7385 947.105 30.7385H941.201ZM944.122 28.7542H946.504C947.318 28.7542 947.912 28.6252 948.286 28.3674C948.659 28.1058 948.846 27.7583 948.846 27.3248C948.846 27.0072 948.753 26.7269 948.569 26.484C948.384 26.2411 948.121 26.0505 947.779 25.9123C947.442 25.774 947.039 25.7049 946.572 25.7049H944.122V28.7542ZM944.122 24.0625H946.288C946.689 24.0625 947.044 24.0046 947.354 23.8887C947.669 23.7692 947.917 23.601 948.097 23.3843C948.281 23.1675 948.373 22.9078 948.373 22.6051C948.373 22.1903 948.196 21.8559 947.84 21.6018C947.489 21.3477 946.99 21.2206 946.342 21.2206H944.122V24.0625Z" fill="black"/>
<path d="M953.763 30.7385V19.2587H963.074V21.2598H956.684V23.9952H962.595V25.9963H956.684V28.7374H963.101V30.7385H953.763Z" fill="black"/>
<path d="M972.892 22.5603C972.838 22.1081 972.607 21.7569 972.197 21.5065C971.788 21.2561 971.233 21.1309 970.531 21.1309C970.054 21.1309 969.652 21.187 969.323 21.2991C968.995 21.4075 968.743 21.5588 968.567 21.7531C968.397 21.9474 968.311 22.1679 968.311 22.4145C968.302 22.6201 968.354 22.7994 968.466 22.9527C968.583 23.1059 968.743 23.2385 968.945 23.3506C969.148 23.459 969.382 23.5543 969.647 23.6365C969.912 23.715 970.196 23.7822 970.497 23.8383L971.739 24.0849C972.341 24.197 972.895 24.3465 973.398 24.5334C973.902 24.7202 974.339 24.95 974.707 25.2228C975.076 25.4956 975.362 25.817 975.564 26.1869C975.771 26.5569 975.877 26.981 975.881 27.4593C975.877 28.1619 975.661 28.771 975.234 29.2867C974.811 29.7986 974.199 30.1966 973.398 30.4806C972.602 30.7609 971.642 30.901 970.517 30.901C969.402 30.901 968.43 30.759 967.603 30.475C966.779 30.191 966.136 29.7706 965.673 29.2138C965.214 28.6533 964.973 27.9601 964.951 27.1342H967.778C967.81 27.5191 967.942 27.8405 968.176 28.0983C968.415 28.3525 968.732 28.5449 969.128 28.6757C969.528 28.8028 969.98 28.8663 970.484 28.8663C970.978 28.8663 971.408 28.8065 971.772 28.6869C972.141 28.5673 972.427 28.401 972.629 28.188C972.832 27.975 972.933 27.7303 972.933 27.4537C972.933 27.1959 972.841 26.9792 972.656 26.8035C972.476 26.6279 972.211 26.4784 971.86 26.3551C971.514 26.2318 971.089 26.1197 970.585 26.0188L969.08 25.7049C967.915 25.4694 966.995 25.1014 966.321 24.6006C965.646 24.0999 965.311 23.4254 965.315 22.5771C965.311 21.882 965.534 21.2748 965.983 20.7554C966.438 20.2359 967.061 19.8305 967.852 19.539C968.644 19.2475 969.544 19.1018 970.551 19.1018C971.577 19.1018 972.472 19.2475 973.237 19.539C974.006 19.8305 974.604 20.2359 975.031 20.7554C975.459 21.2748 975.679 21.8764 975.692 22.5603H972.892Z" fill="black"/>
<path d="M977.32 21.2598V19.2587H988.669V21.2598H984.438V30.7385H981.551V21.2598H977.32Z" fill="black"/>
<path d="M999.834 30.7385H994.935V19.2587H999.874C1001.26 19.2587 1002.46 19.4886 1003.46 19.9482C1004.47 20.4041 1005.24 21.0599 1005.78 21.9157C1006.32 22.7714 1006.59 23.7953 1006.59 24.9874C1006.59 26.1832 1006.32 27.2108 1005.78 28.0703C1005.24 28.9298 1004.46 29.5894 1003.45 30.049C1002.44 30.5086 1001.24 30.7385 999.834 30.7385ZM997.857 28.6589H999.712C1000.58 28.6589 1001.3 28.5318 1001.89 28.2777C1002.49 28.0199 1002.93 27.6219 1003.23 27.0838C1003.53 26.5419 1003.68 25.8431 1003.68 24.9874C1003.68 24.1391 1003.53 23.4459 1003.23 22.9078C1002.93 22.3697 1002.49 21.9736 1001.9 21.7195C1001.31 21.4654 1000.58 21.3383 999.719 21.3383H997.857V28.6589Z" fill="black"/>
<path d="M1011.68 19.2587V30.7385H1008.76V19.2587H1011.68Z" fill="black"/>
<path d="M1021.58 22.5603C1021.53 22.1081 1021.29 21.7569 1020.88 21.5065C1020.48 21.2561 1019.92 21.1309 1019.22 21.1309C1018.74 21.1309 1018.34 21.187 1018.01 21.2991C1017.68 21.4075 1017.43 21.5588 1017.25 21.7531C1017.08 21.9474 1017 22.1679 1017 22.4145C1016.99 22.6201 1017.04 22.7994 1017.15 22.9527C1017.27 23.1059 1017.43 23.2385 1017.63 23.3506C1017.84 23.459 1018.07 23.5543 1018.33 23.6365C1018.6 23.715 1018.88 23.7822 1019.18 23.8383L1020.43 24.0849C1021.03 24.197 1021.58 24.3465 1022.09 24.5334C1022.59 24.7202 1023.03 24.95 1023.39 25.2228C1023.76 25.4956 1024.05 25.817 1024.25 26.1869C1024.46 26.5569 1024.56 26.981 1024.57 27.4593C1024.56 28.1619 1024.35 28.771 1023.92 29.2867C1023.5 29.7986 1022.89 30.1966 1022.09 30.4806C1021.29 30.7609 1020.33 30.901 1019.2 30.901C1018.09 30.901 1017.12 30.759 1016.29 30.475C1015.47 30.191 1014.82 29.7706 1014.36 29.2138C1013.9 28.6533 1013.66 27.9601 1013.64 27.1342H1016.47C1016.5 27.5191 1016.63 27.8405 1016.86 28.0983C1017.1 28.3525 1017.42 28.5449 1017.82 28.6757C1018.22 28.8028 1018.67 28.8663 1019.17 28.8663C1019.67 28.8663 1020.1 28.8065 1020.46 28.6869C1020.83 28.5673 1021.11 28.401 1021.32 28.188C1021.52 27.975 1021.62 27.7303 1021.62 27.4537C1021.62 27.1959 1021.53 26.9792 1021.34 26.8035C1021.16 26.6279 1020.9 26.4784 1020.55 26.3551C1020.2 26.2318 1019.78 26.1197 1019.27 26.0188L1017.77 25.7049C1016.6 25.4694 1015.68 25.1014 1015.01 24.6006C1014.33 24.0999 1014 23.4254 1014 22.5771C1014 21.882 1014.22 21.2748 1014.67 20.7554C1015.13 20.2359 1015.75 19.8305 1016.54 19.539C1017.33 19.2475 1018.23 19.1018 1019.24 19.1018C1020.26 19.1018 1021.16 19.2475 1021.92 19.539C1022.69 19.8305 1023.29 20.2359 1023.72 20.7554C1024.15 21.2748 1024.37 21.8764 1024.38 22.5603H1021.58Z" fill="black"/>
<path d="M1038.73 23.2778H1035.77C1035.72 22.9601 1035.61 22.678 1035.44 22.4314C1035.27 22.181 1035.06 21.968 1034.8 21.7924C1034.54 21.6167 1034.24 21.4822 1033.9 21.3888C1033.56 21.2953 1033.19 21.2486 1032.8 21.2486C1032.08 21.2486 1031.46 21.3962 1030.93 21.6915C1030.4 21.9829 1029.98 22.4089 1029.69 22.9695C1029.4 23.5263 1029.25 24.2026 1029.25 24.9986C1029.25 25.817 1029.4 26.5046 1029.69 27.0614C1029.99 27.6182 1030.4 28.0386 1030.93 28.3226C1031.46 28.6066 1032.08 28.7486 1032.78 28.7486C1033.17 28.7486 1033.53 28.7056 1033.86 28.6196C1034.2 28.5337 1034.5 28.4085 1034.76 28.2441C1035.02 28.0759 1035.24 27.8723 1035.41 27.6331C1035.58 27.3939 1035.7 27.1212 1035.77 26.8147L1038.73 26.8259C1038.65 27.3528 1038.46 27.8611 1038.15 28.3506C1037.85 28.8364 1037.44 29.2717 1036.93 29.6566C1036.42 30.0378 1035.82 30.3405 1035.11 30.5647C1034.41 30.7852 1033.61 30.8954 1032.73 30.8954C1031.5 30.8954 1030.39 30.6637 1029.42 30.2003C1028.45 29.737 1027.69 29.0662 1027.13 28.188C1026.57 27.3099 1026.29 26.2467 1026.29 24.9986C1026.29 23.7467 1026.57 22.6817 1027.14 21.8036C1027.71 20.9254 1028.48 20.2565 1029.45 19.7969C1030.42 19.3335 1031.51 19.1018 1032.73 19.1018C1033.53 19.1018 1034.27 19.1952 1034.95 19.3821C1035.64 19.5689 1036.25 19.8417 1036.78 20.2004C1037.31 20.5554 1037.75 20.9908 1038.08 21.5065C1038.42 22.0222 1038.63 22.6126 1038.73 23.2778Z" fill="black"/>
<path d="M1053.52 24.9986C1053.52 26.2505 1053.23 27.3155 1052.66 28.1936C1052.1 29.0718 1051.32 29.7426 1050.34 30.206C1049.37 30.6656 1048.27 30.8954 1047.05 30.8954C1045.82 30.8954 1044.72 30.6637 1043.74 30.2003C1042.77 29.737 1042 29.0662 1041.43 28.188C1040.86 27.3099 1040.58 26.2467 1040.58 24.9986C1040.58 23.7467 1040.86 22.6817 1041.43 21.8036C1042 20.9254 1042.77 20.2565 1043.74 19.7969C1044.72 19.3335 1045.82 19.1018 1047.05 19.1018C1048.27 19.1018 1049.37 19.3335 1050.34 19.7969C1051.32 20.2565 1052.1 20.9254 1052.66 21.8036C1053.23 22.6817 1053.52 23.7467 1053.52 24.9986ZM1050.56 24.9986C1050.56 24.1877 1050.41 23.5038 1050.12 22.9471C1049.83 22.3903 1049.42 21.968 1048.9 21.6802C1048.37 21.3925 1047.75 21.2486 1047.05 21.2486C1046.34 21.2486 1045.73 21.3925 1045.2 21.6802C1044.67 21.968 1044.26 22.3903 1043.97 22.9471C1043.68 23.5038 1043.54 24.1877 1043.54 24.9986C1043.54 25.8095 1043.68 26.4934 1043.97 27.0502C1044.26 27.6069 1044.67 28.0292 1045.2 28.317C1045.73 28.6047 1046.34 28.7486 1047.05 28.7486C1047.75 28.7486 1048.37 28.6047 1048.9 28.317C1049.42 28.0292 1049.83 27.6069 1050.12 27.0502C1050.41 26.4934 1050.56 25.8095 1050.56 24.9986Z" fill="black"/>
<path d="M1064.22 19.2587H1067.14V26.7138C1067.14 27.5509 1066.9 28.2833 1066.42 28.9111C1065.94 29.5389 1065.27 30.0285 1064.41 30.3797C1063.56 30.7272 1062.55 30.901 1061.41 30.901C1060.26 30.901 1059.26 30.7272 1058.4 30.3797C1057.54 30.0285 1056.88 29.5389 1056.4 28.9111C1055.92 28.2833 1055.68 27.5509 1055.68 26.7138V19.2587H1058.6V26.5064C1058.6 26.9437 1058.72 27.3323 1058.95 27.6723C1059.18 28.0124 1059.51 28.2796 1059.93 28.4739C1060.36 28.6682 1060.85 28.7654 1061.41 28.7654C1061.98 28.7654 1062.47 28.6682 1062.89 28.4739C1063.31 28.2796 1063.64 28.0124 1063.87 27.6723C1064.1 27.3323 1064.22 26.9437 1064.22 26.5064V19.2587Z" fill="black"/>
<path d="M1081.1 19.2587V30.7385H1078.58L1072.57 23.5132H1072.47V30.7385H1069.54V19.2587H1072.11L1078.07 26.4784H1078.19V19.2587H1081.1Z" fill="black"/>
<path d="M1082.99 21.2598V19.2587H1094.34V21.2598H1090.11V30.7385H1087.22V21.2598H1082.99Z" fill="black"/>
<path d="M1103.7 22.5603C1103.65 22.1081 1103.42 21.7569 1103.01 21.5065C1102.6 21.2561 1102.04 21.1309 1101.34 21.1309C1100.86 21.1309 1100.46 21.187 1100.13 21.2991C1099.81 21.4075 1099.55 21.5588 1099.38 21.7531C1099.21 21.9474 1099.12 22.1679 1099.12 22.4145C1099.11 22.6201 1099.16 22.7994 1099.28 22.9527C1099.39 23.1059 1099.55 23.2385 1099.76 23.3506C1099.96 23.459 1100.19 23.5543 1100.46 23.6365C1100.72 23.715 1101.01 23.7822 1101.31 23.8383L1102.55 24.0849C1103.15 24.197 1103.71 24.3465 1104.21 24.5334C1104.71 24.7202 1105.15 24.95 1105.52 25.2228C1105.89 25.4956 1106.17 25.817 1106.37 26.1869C1106.58 26.5569 1106.69 26.981 1106.69 27.4593C1106.69 28.1619 1106.47 28.771 1106.04 29.2867C1105.62 29.7986 1105.01 30.1966 1104.21 30.4806C1103.41 30.7609 1102.45 30.901 1101.33 30.901C1100.21 30.901 1099.24 30.759 1098.41 30.475C1097.59 30.191 1096.95 29.7706 1096.48 29.2138C1096.02 28.6533 1095.78 27.9601 1095.76 27.1342H1098.59C1098.62 27.5191 1098.75 27.8405 1098.99 28.0983C1099.23 28.3525 1099.54 28.5449 1099.94 28.6757C1100.34 28.8028 1100.79 28.8663 1101.29 28.8663C1101.79 28.8663 1102.22 28.8065 1102.58 28.6869C1102.95 28.5673 1103.24 28.401 1103.44 28.188C1103.64 27.975 1103.74 27.7303 1103.74 27.4537C1103.74 27.1959 1103.65 26.9792 1103.47 26.8035C1103.29 26.6279 1103.02 26.4784 1102.67 26.3551C1102.32 26.2318 1101.9 26.1197 1101.4 26.0188L1099.89 25.7049C1098.73 25.4694 1097.81 25.1014 1097.13 24.6006C1096.46 24.0999 1096.12 23.4254 1096.13 22.5771C1096.12 21.882 1096.34 21.2748 1096.79 20.7554C1097.25 20.2359 1097.87 19.8305 1098.66 19.539C1099.45 19.2475 1100.35 19.1018 1101.36 19.1018C1102.39 19.1018 1103.28 19.2475 1104.05 19.539C1104.82 19.8305 1105.41 20.2359 1105.84 20.7554C1106.27 21.2748 1106.49 21.8764 1106.5 22.5603H1103.7Z" fill="black"/>
</svg>
